<svg width="27" height="27" viewBox="0 0 27 27" fill="none" xmlns="http://www.w3.org/2000/svg">
<path d="M19.8154 17.4542C21.4493 15.2242 22.1812 12.4595 21.8645 9.71306C21.5478 6.96664 20.2059 4.44109 18.1073 2.64168C16.0087 0.842265 13.3082 -0.0983054 10.546 0.00814148C7.78384 0.114588 5.1637 1.2602 3.20978 3.21579C1.25587 5.17137 0.112296 7.79271 0.00784073 10.5554C-0.0966147 13.318 0.845755 16.0182 2.64642 18.1158C4.44708 20.2134 6.97323 21.5537 9.71949 21.8684C12.4658 22.1832 15.2296 21.4493 17.458 19.8135H17.4564C17.5059 19.881 17.561 19.9457 17.6217 20.0076L24.1184 26.5052C24.4348 26.8218 24.864 26.9998 25.3116 27C25.7592 27.0002 26.1886 26.8225 26.5052 26.506C26.8219 26.1896 26.9998 25.7603 27 25.3126C27.0002 24.8649 26.8225 24.4355 26.5061 24.1188L20.0095 17.6213C19.9492 17.5601 19.8843 17.5054 19.8154 17.4542ZM20.2508 10.9668C20.2508 12.1857 20.0107 13.3927 19.5443 14.5189C19.0779 15.6451 18.3943 16.6683 17.5324 17.5303C16.6706 18.3922 15.6475 19.0759 14.5215 19.5424C13.3955 20.0089 12.1886 20.249 10.9699 20.249C9.75107 20.249 8.54422 20.0089 7.41821 19.5424C6.2922 19.0759 5.26908 18.3922 4.40726 17.5303C3.54545 16.6683 2.86183 15.6451 2.39542 14.5189C1.92901 13.3927 1.68895 12.1857 1.68895 10.9668C1.68895 8.50496 2.66676 6.144 4.40726 4.40324C6.14777 2.66249 8.5084 1.68455 10.9699 1.68455C13.4313 1.68455 15.7919 2.66249 17.5324 4.40324C19.2729 6.144 20.2508 8.50496 20.2508 10.9668Z" fill="#D5D5D5"/>
</svg>
